HIERARCHY
ROOT mixamorig:Hips
{
	OFFSET -0.000008 104.274872 1.554316
	CHANNELS 6 Xposition Yposition Zposition Xrotation Yrotation Zrotation
	JOINT mixamorig:Spine
	{
		OFFSET -0.000005 10.181595 0.131519
		CHANNELS 6 Xposition Yposition Zposition Xrotation Yrotation Zrotation
		JOINT mixamorig:Spine1
		{
			OFFSET -0.000000 9.893959 -1.470707
			CHANNELS 6 Xposition Yposition Zposition Xrotation Yrotation Zrotation
			JOINT mixamorig:Spine2
			{
				OFFSET -0.000000 9.220757 -1.370641
				CHANNELS 6 Xposition Yposition Zposition Xrotation Yrotation Zrotation
				JOINT mixamorig:Neck
				{
					OFFSET 0.000001 16.740417 -2.049036
					CHANNELS 6 Xposition Yposition Zposition Xrotation Yrotation Zrotation
					JOINT mixamorig:Head
					{
						OFFSET 0.000000 9.617874 1.685006
						CHANNELS 6 Xposition Yposition Zposition Xrotation Yrotation Zrotation
						JOINT mixamorig:HeadTop_End
						{
							OFFSET 0.000002 22.037354 7.501101
							CHANNELS 6 Xposition Yposition Zposition Xrotation Yrotation Zrotation
							End Site
							{
								OFFSET 0.000168 2310.654297 -282.823242
							}
						}
					}
				}
				JOINT mixamorig:RightShoulder
				{
					OFFSET -4.569970 11.014908 -2.160885
					CHANNELS 6 Xposition Yposition Zposition Xrotation Yrotation Zrotation
					JOINT mixamorig:RightArm
					{
						OFFSET -10.592851 -0.524811 -2.232101
						CHANNELS 6 Xposition Yposition Zposition Xrotation Yrotation Zrotation
						JOINT mixamorig:RightForeArm
						{
							OFFSET -27.841511 0.000031 -0.000004
							CHANNELS 6 Xposition Yposition Zposition Xrotation Yrotation Zrotation
							JOINT mixamorig:RightHand
							{
								OFFSET -28.328831 -0.000015 0.000015
								CHANNELS 6 Xposition Yposition Zposition Xrotation Yrotation Zrotation
								JOINT mixamorig:RightHandThumb1
								{
									OFFSET -2.464806 -1.573990 2.681852
									CHANNELS 6 Xposition Yposition Zposition Xrotation Yrotation Zrotation
									JOINT mixamorig:RightHandThumb2
									{
										OFFSET -3.215179 -1.872803 1.924282
										CHANNELS 6 Xposition Yposition Zposition Xrotation Yrotation Zrotation
										JOINT mixamorig:RightHandThumb3
										{
											OFFSET -2.654831 -1.527969 1.512609
											CHANNELS 6 Xposition Yposition Zposition Xrotation Yrotation Zrotation
											JOINT mixamorig:RightHandThumb4
											{
												OFFSET -2.018814 -1.152008 1.108052
												CHANNELS 6 Xposition Yposition Zposition Xrotation Yrotation Zrotation
												End Site
												{
													OFFSET -188.809540 -114.533607 132.431396
												}
											}
										}
									}
								}
								JOINT mixamorig:RightHandIndex1
								{
									OFFSET -9.108284 -0.517868 2.259835
									CHANNELS 6 Xposition Yposition Zposition Xrotation Yrotation Zrotation
									JOINT mixamorig:RightHandIndex2
									{
										OFFSET -3.699989 0.000000 0.001215
										CHANNELS 6 Xposition Yposition Zposition Xrotation Yrotation Zrotation
										JOINT mixamorig:RightHandIndex3
										{
											OFFSET -2.850006 0.000031 -0.000522
											CHANNELS 6 Xposition Yposition Zposition Xrotation Yrotation Zrotation
											JOINT mixamorig:RightHandIndex4
											{
												OFFSET -2.772186 -0.000015 -0.000020
												CHANNELS 6 Xposition Yposition Zposition Xrotation Yrotation Zrotation
												End Site
												{
													OFFSET -277.218445 0.000000 -0.050231
												}
											}
										}
									}
								}
								JOINT mixamorig:RightHandMiddle1
								{
									OFFSET -9.532516 -0.000031 -0.000023
									CHANNELS 6 Xposition Yposition Zposition Xrotation Yrotation Zrotation
									JOINT mixamorig:RightHandMiddle2
									{
										OFFSET -3.700005 -0.000015 0.003713
										CHANNELS 6 Xposition Yposition Zposition Xrotation Yrotation Zrotation
										JOINT mixamorig:RightHandMiddle3
										{
											OFFSET -2.949974 0.000015 -0.002054
											CHANNELS 6 Xposition Yposition Zposition Xrotation Yrotation Zrotation
											JOINT mixamorig:RightHandMiddle4
											{
												OFFSET -2.946640 0.000000 -0.000156
												CHANNELS 6 Xposition Yposition Zposition Xrotation Yrotation Zrotation
												End Site
												{
													OFFSET -294.664337 0.000000 -0.113670
												}
											}
										}
									}
								}
								JOINT mixamorig:RightHandRing1
								{
									OFFSET -9.103600 -0.043076 -1.865134
									CHANNELS 6 Xposition Yposition Zposition Xrotation Yrotation Zrotation
									JOINT mixamorig:RightHandRing2
									{
										OFFSET -3.379288 0.000000 -0.001055
										CHANNELS 6 Xposition Yposition Zposition Xrotation Yrotation Zrotation
										JOINT mixamorig:RightHandRing3
										{
											OFFSET -2.889687 -0.000015 0.000379
											CHANNELS 6 Xposition Yposition Zposition Xrotation Yrotation Zrotation
											JOINT mixamorig:RightHandRing4
											{
												OFFSET -2.638809 -0.000015 0.000941
												CHANNELS 6 Xposition Yposition Zposition Xrotation Yrotation Zrotation
												End Site
												{
													OFFSET -263.880371 0.000000 0.516020
												}
											}
										}
									}
								}
								JOINT mixamorig:RightHandPinky1
								{
									OFFSET -8.076683 -0.486710 -3.806280
									CHANNELS 6 Xposition Yposition Zposition Xrotation Yrotation Zrotation
									JOINT mixamorig:RightHandPinky2
									{
										OFFSET -3.600014 -0.000015 -0.003747
										CHANNELS 6 Xposition Yposition Zposition Xrotation Yrotation Zrotation
										JOINT mixamorig:RightHandPinky3
										{
											OFFSET -2.099983 0.000000 -0.005739
											CHANNELS 6 Xposition Yposition Zposition Xrotation Yrotation Zrotation
											JOINT mixamorig:RightHandPinky4
											{
												OFFSET -2.115768 -0.000031 -0.003680
												CHANNELS 6 Xposition Yposition Zposition Xrotation Yrotation Zrotation
												End Site
												{
													OFFSET -211.577087 0.000000 -0.350686
												}
											}
										}
									}
								}
							}
						}
					}
				}
				JOINT mixamorig:LeftShoulder
				{
					OFFSET 4.570447 11.014725 -2.160855
					CHANNELS 6 Xposition Yposition Zposition Xrotation Yrotation Zrotation
					JOINT mixamorig:LeftArm
					{
						OFFSET 10.592371 -0.524597 -2.232119
						CHANNELS 6 Xposition Yposition Zposition Xrotation Yrotation Zrotation
						JOINT mixamorig:LeftForeArm
						{
							OFFSET 27.841532 -0.000031 0.000026
							CHANNELS 6 Xposition Yposition Zposition Xrotation Yrotation Zrotation
							JOINT mixamorig:LeftHand
							{
								OFFSET 28.328846 -0.000061 0.000022
								CHANNELS 6 Xposition Yposition Zposition Xrotation Yrotation Zrotation
								JOINT mixamorig:LeftHandThumb1
								{
									OFFSET 2.466141 -1.576172 2.681732
									CHANNELS 6 Xposition Yposition Zposition Xrotation Yrotation Zrotation
									JOINT mixamorig:LeftHandThumb2
									{
										OFFSET 3.217812 -1.872070 1.916482
										CHANNELS 6 Xposition Yposition Zposition Xrotation Yrotation Zrotation
										JOINT mixamorig:LeftHandThumb3
										{
											OFFSET 2.656029 -1.528778 1.514513
											CHANNELS 6 Xposition Yposition Zposition Xrotation Yrotation Zrotation
											JOINT mixamorig:LeftHandThumb4
											{
												OFFSET 2.020889 -1.154053 1.115139
												CHANNELS 6 Xposition Yposition Zposition Xrotation Yrotation Zrotation
												End Site
												{
													OFFSET 190.885437 -115.081749 130.048782
												}
											}
										}
									}
								}
								JOINT mixamorig:LeftHandIndex1
								{
									OFFSET 9.109314 -0.518021 2.259871
									CHANNELS 6 Xposition Yposition Zposition Xrotation Yrotation Zrotation
									JOINT mixamorig:LeftHandIndex2
									{
										OFFSET 3.699989 0.000000 -0.000322
										CHANNELS 6 Xposition Yposition Zposition Xrotation Yrotation Zrotation
										JOINT mixamorig:LeftHandIndex3
										{
											OFFSET 2.850006 0.000000 0.000352
											CHANNELS 6 Xposition Yposition Zposition Xrotation Yrotation Zrotation
											JOINT mixamorig:LeftHandIndex4
											{
												OFFSET 2.774864 -0.000031 -0.000027
												CHANNELS 6 Xposition Yposition Zposition Xrotation Yrotation Zrotation
												End Site
												{
													OFFSET 277.486267 0.000000 -0.009857
												}
											}
										}
									}
								}
								JOINT mixamorig:LeftHandMiddle1
								{
									OFFSET 9.533394 0.000061 0.000044
									CHANNELS 6 Xposition Yposition Zposition Xrotation Yrotation Zrotation
									JOINT mixamorig:LeftHandMiddle2
									{
										OFFSET 3.699989 -0.000015 -0.000231
										CHANNELS 6 Xposition Yposition Zposition Xrotation Yrotation Zrotation
										JOINT mixamorig:LeftHandMiddle3
										{
											OFFSET 2.949997 -0.000015 -0.000059
											CHANNELS 6 Xposition Yposition Zposition Xrotation Yrotation Zrotation
											JOINT mixamorig:LeftHandMiddle4
											{
												OFFSET 2.952896 0.000031 0.000063
												CHANNELS 6 Xposition Yposition Zposition Xrotation Yrotation Zrotation
												End Site
												{
													OFFSET 295.289337 0.000000 0.022810
												}
											}
										}
									}
								}
								JOINT mixamorig:LeftHandRing1
								{
									OFFSET 9.104523 -0.042999 -1.865074
									CHANNELS 6 Xposition Yposition Zposition Xrotation Yrotation Zrotation
									JOINT mixamorig:LeftHandRing2
									{
										OFFSET 3.150009 -0.000031 0.000043
										CHANNELS 6 Xposition Yposition Zposition Xrotation Yrotation Zrotation
										JOINT mixamorig:LeftHandRing3
										{
											OFFSET 2.949982 -0.000015 0.000040
											CHANNELS 6 Xposition Yposition Zposition Xrotation Yrotation Zrotation
											JOINT mixamorig:LeftHandRing4
											{
												OFFSET 2.644348 0.000000 0.000057
												CHANNELS 6 Xposition Yposition Zposition Xrotation Yrotation Zrotation
												End Site
												{
													OFFSET 264.434631 0.000000 0.012105
												}
											}
										}
									}
								}
								JOINT mixamorig:LeftHandPinky1
								{
									OFFSET 8.077789 -0.486847 -3.806259
									CHANNELS 6 Xposition Yposition Zposition Xrotation Yrotation Zrotation
									JOINT mixamorig:LeftHandPinky2
									{
										OFFSET 3.599953 0.000031 0.014727
										CHANNELS 6 Xposition Yposition Zposition Xrotation Yrotation Zrotation
										JOINT mixamorig:LeftHandPinky3
										{
											OFFSET 2.100021 0.000015 0.007705
											CHANNELS 6 Xposition Yposition Zposition Xrotation Yrotation Zrotation
											JOINT mixamorig:LeftHandPinky4
											{
												OFFSET 2.125504 0.000031 0.007517
												CHANNELS 6 Xposition Yposition Zposition Xrotation Yrotation Zrotation
												End Site
												{
													OFFSET 212.550781 0.000000 0.625752
												}
											}
										}
									}
								}
							}
						}
					}
				}
			}
		}
	}
	JOINT mixamorig:RightUpLeg
	{
		OFFSET -8.207787 -6.751648 -1.599560
		CHANNELS 6 Xposition Yposition Zposition Xrotation Yrotation Zrotation
		JOINT mixamorig:RightLeg
		{
			OFFSET -0.000002 -44.370117 0.345942
			CHANNELS 6 Xposition Yposition Zposition Xrotation Yrotation Zrotation
			JOINT mixamorig:RightFoot
			{
				OFFSET 0.000003 -44.423679 -3.043532
				CHANNELS 6 Xposition Yposition Zposition Xrotation Yrotation Zrotation
				JOINT mixamorig:RightToeBase
				{
					OFFSET -0.000002 -8.728671 10.710558
					CHANNELS 6 Xposition Yposition Zposition Xrotation Yrotation Zrotation
					JOINT mixamorig:RightToe_End
					{
						OFFSET -0.000001 -0.000679 9.278119
						CHANNELS 6 Xposition Yposition Zposition Xrotation Yrotation Zrotation
						End Site
						{
							OFFSET 0.000000 -0.067690 927.812134
						}
					}
				}
			}
		}
	}
	JOINT mixamorig:LeftUpLeg
	{
		OFFSET 8.207793 -6.751686 -1.599556
		CHANNELS 6 Xposition Yposition Zposition Xrotation Yrotation Zrotation
		JOINT mixamorig:LeftLeg
		{
			OFFSET -0.000004 -44.370014 0.346954
			CHANNELS 6 Xposition Yposition Zposition Xrotation Yrotation Zrotation
			JOINT mixamorig:LeftFoot
			{
				OFFSET -0.000001 -44.423672 -3.044401
				CHANNELS 6 Xposition Yposition Zposition Xrotation Yrotation Zrotation
				JOINT mixamorig:LeftToeBase
				{
					OFFSET -0.000002 -8.728669 10.710558
					CHANNELS 6 Xposition Yposition Zposition Xrotation Yrotation Zrotation
					JOINT mixamorig:LeftToe_End
					{
						OFFSET -0.000003 -0.000679 9.278133
						CHANNELS 6 Xposition Yposition Zposition Xrotation Yrotation Zrotation
						End Site
						{
							OFFSET 0.000000 -0.068021 927.813477
						}
					}
				}
			}
		}
	}
}
MOTION
Frames: 3
Frame Time: 0.033333
0.000006 104.270477 1.554256 0.000010 0.000003 -0.000113 -0.000005 10.181587 0.131522 0.000001 -0.000003 0.000084 -0.000000 9.893967 -1.470711 0.000001 0.000000 -0.000000 -0.000000 9.220802 -1.370642 0.000000 -0.000000 -0.000000 0.000001 16.740433 -2.049030 0.000000 -0.000000 -0.000000 0.000000 9.617859 1.685014 0.000000 0.000000 0.000000 0.000002 22.037384 7.501101 0.000000 -0.000000 0.000000 -4.569968 11.014880 -2.160881 0.000008 0.000001 -0.000038 -10.592876 -0.524745 -2.231915 77.483633 24.582008 -19.831225 -27.841528 0.000014 0.000530 -58.893825 110.963718 78.762948 -28.328823 0.000005 0.000031 -0.000318 -0.000045 0.000008 -2.464445 -1.573749 2.682341 -49.401375 -169.999625 -13.960792 -3.215272 -1.872620 1.924659 155.723655 31.099777 0.023585 -2.654948 -1.527875 1.513100 145.738574 26.743751 -42.133736 -2.018826 -1.152013 1.108059 0.000002 -0.000005 -0.000001 -9.108380 -0.517564 2.260136 99.617824 17.099993 -20.237178 -3.700061 0.000336 0.001514 96.605458 14.251804 -15.949458 -2.850070 0.000362 -0.000264 95.454407 10.931373 -12.016239 -2.772174 -0.000002 -0.000016 0.000001 -0.000000 0.000001 -9.532588 0.000266 0.000260 94.023776 16.530188 -17.868431 -3.700067 0.000337 0.003969 93.188267 12.668843 -13.287165 -2.950048 0.000339 -0.001820 93.889686 10.978826 -11.737897 -2.946631 0.000015 -0.000154 -0.000000 -0.000000 -0.000001 -9.103696 -0.042750 -1.864853 93.830939 17.188837 -18.311085 -3.379327 0.000331 -0.000815 93.614067 9.416638 -10.045549 -2.889741 0.000364 0.000648 96.962609 6.147551 -6.993010 -2.638821 -0.000025 0.000945 -0.000003 0.000002 -0.000001 -8.076747 -0.486396 -3.806003 92.175056 17.983255 -18.509835 -3.600030 0.000283 -0.003495 94.800642 7.773824 -8.069279 -2.100000 0.000336 -0.005472 96.926456 3.929265 -4.193549 -2.115768 -0.000042 -0.003676 0.000000 -0.000000 -0.000003 4.570446 11.014691 -2.160851 -0.000018 0.000010 -0.000021 10.592403 -0.524465 -2.232363 75.661987 -13.396499 10.421930 27.841827 0.000080 -0.000210 102.373915 -68.617050 80.616286 28.328846 -0.000029 0.000019 0.000023 -0.000088 0.000000 2.465953 -1.576121 2.681917 -46.759649 166.260041 7.307582 3.217834 -1.871755 1.916376 157.215696 -29.311006 10.512190 2.656100 -1.528638 1.514456 143.439847 -27.072612 43.377514 2.020884 -1.154085 1.115147 -0.000000 -0.000001 -0.000001 9.109387 -0.517833 2.259730 86.125612 -15.210299 14.214085 3.700031 0.000146 -0.000446 84.875038 -13.106276 12.007503 2.850042 0.000188 0.000211 80.582667 -11.025494 9.354444 2.774866 -0.000029 -0.000026 0.000000 0.000001 -0.000001 9.533470 0.000237 -0.000084 88.484486 -14.321956 13.943297 3.700049 0.000163 -0.000374 88.341373 -11.737037 11.401744 2.950071 0.000173 -0.000202 86.879733 -14.404242 13.650650 2.952872 -0.000031 0.000063 -0.000001 -0.000001 0.000001 9.104606 -0.042810 -1.865225 88.252355 -12.969386 12.584709 3.150038 0.000207 -0.000091 92.393178 -11.248971 11.727521 2.950034 0.000176 -0.000060 93.264041 -12.966836 13.722235 2.644319 0.000032 0.000055 0.000007 -0.000000 -0.000001 8.077847 -0.486702 -3.806391 79.725807 -15.543248 13.492112 3.600014 0.000176 0.014571 79.373376 -12.394058 10.718205 2.100037 0.000163 0.007547 79.699954 -11.453630 9.971152 2.125499 -0.000029 0.007513 0.000001 -0.000000 -0.000001 -8.207786 -6.751667 -1.599560 -0.077001 -0.000003 0.000080 -0.000002 -44.370110 0.345938 0.153719 -0.000000 -0.000000 0.000000 -44.423679 -3.043532 -0.076700 0.000000 -0.000002 -0.000006 -8.728667 10.710559 -0.000009 -0.000000 -0.000000 -0.000001 -0.000679 9.278123 0.000000 -0.000000 -0.000000 8.207792 -6.751710 -1.599556 -0.074518 -0.000003 0.000081 -0.000002 -44.370014 0.346960 0.148822 0.000002 0.000000 -0.000001 -44.423664 -3.044403 -0.074314 0.000000 -0.000002 -0.000004 -8.728671 10.710558 0.000007 -0.000000 -0.000000 0.000000 -0.000680 9.278137 -0.000000 0.000000 -0.000001 
0.000006 104.270477 1.554256 0.000010 0.000003 -0.000113 -0.000005 10.181587 0.131522 0.000001 -0.000003 0.000084 -0.000000 9.893967 -1.470711 0.000001 0.000000 -0.000000 -0.000000 9.220802 -1.370642 0.000000 -0.000000 -0.000000 0.000001 16.740433 -2.049030 0.000000 -0.000000 -0.000000 0.000000 9.617859 1.685014 0.000000 0.000000 0.000000 0.000002 22.037384 7.501101 0.000000 -0.000000 0.000000 -4.569968 11.014880 -2.160881 0.000008 0.000001 -0.000038 -10.592880 -0.524715 -2.231959 77.974771 17.680232 -14.349903 -27.841534 0.000023 0.000542 -58.772535 112.231496 79.963729 -28.328852 0.000018 0.000022 -0.000318 -0.000043 0.000007 -2.464443 -1.573705 2.682300 -51.915984 -170.529893 -21.562007 -3.215298 -1.872610 1.924662 155.639124 30.521216 -3.321792 -2.654953 -1.527871 1.513083 145.282153 26.914635 -41.397869 -2.018830 -1.151984 1.108070 0.000003 -0.000002 0.000000 -9.108369 -0.517545 2.260109 99.558845 15.404901 -18.227120 -3.700057 0.000322 0.001507 97.085292 12.516001 -14.125872 -2.850068 0.000376 -0.000276 96.030896 9.459933 -10.505417 -2.772168 -0.000001 -0.000019 -0.000000 0.000000 -0.000001 -9.532608 0.000267 0.000242 93.174189 15.907157 -16.951158 -3.700053 0.000322 0.003976 92.786836 11.603949 -12.079557 -2.950045 0.000344 -0.001812 94.447706 10.593233 -11.436162 -2.946628 0.000001 -0.000159 0.000003 0.000001 -0.000002 -9.103708 -0.042749 -1.864877 91.495520 17.125163 -17.525335 -3.379325 0.000319 -0.000808 93.257333 8.476803 -8.989065 -2.889750 0.000354 0.000670 99.654502 5.639844 -6.731095 -2.638818 -0.000001 0.000939 0.000001 0.000001 0.000001 -8.076772 -0.486381 -3.806010 89.141195 17.160982 -16.760857 -3.600029 0.000299 -0.003498 92.921862 6.561742 -6.540288 -2.100013 0.000340 -0.005472 97.565919 2.986654 -3.168645 -2.115775 -0.000037 -0.003678 -0.000001 -0.000000 -0.000007 4.570446 11.014691 -2.160851 -0.000018 0.000010 -0.000021 10.592365 -0.524503 -2.232295 75.399824 3.142741 -2.429140 27.841835 0.000088 -0.000212 103.025522 -66.635257 79.163928 28.328819 -0.000029 0.000021 0.000022 -0.000089 -0.000001 2.466050 -1.576177 2.681906 -29.221660 160.517860 -32.783562 3.217853 -1.871798 1.916387 163.410432 -26.260136 23.785661 2.656100 -1.528656 1.514479 143.242659 -26.387439 53.726125 2.020895 -1.154073 1.115144 0.000001 0.000004 0.000004 9.109362 -0.517861 2.259723 85.698541 -17.521717 16.259248 3.700038 0.000168 -0.000467 83.894237 -12.577847 11.328033 2.850034 0.000203 0.000206 82.255504 -9.416148 8.225562 2.774891 -0.000033 -0.000021 0.000001 -0.000002 0.000001 9.533453 0.000216 -0.000093 87.439378 -16.315631 15.602770 3.700037 0.000202 -0.000378 89.106586 -10.721695 10.554157 2.950058 0.000186 -0.000204 88.706044 -10.492242 10.261994 2.952852 -0.000046 0.000060 -0.000001 0.000001 -0.000001 9.104578 -0.042848 -1.865217 88.193424 -15.741914 15.260958 3.150057 0.000198 -0.000095 93.485755 -11.528659 12.248850 2.950030 0.000205 -0.000080 93.660417 -10.099864 10.764668 2.644318 0.000030 0.000050 0.000000 -0.000000 -0.000000 8.077848 -0.486712 -3.806395 82.969655 -17.430766 15.964973 3.600008 0.000196 0.014580 82.233511 -14.885281 13.464413 2.100051 0.000190 0.007548 81.750008 -10.777672 9.747164 2.125495 -0.000030 0.007513 0.000001 0.000001 0.000000 -8.207786 -6.751667 -1.599560 -0.077001 -0.000003 0.000080 -0.000002 -44.370110 0.345938 0.153719 -0.000000 -0.000000 0.000000 -44.423679 -3.043532 -0.076700 0.000000 -0.000002 -0.000006 -8.728667 10.710559 -0.000009 -0.000000 -0.000000 -0.000001 -0.000679 9.278123 0.000000 -0.000000 -0.000000 8.207792 -6.751710 -1.599556 -0.074518 -0.000003 0.000081 -0.000002 -44.370014 0.346960 0.148822 0.000002 0.000000 -0.000001 -44.423664 -3.044403 -0.074314 0.000000 -0.000002 -0.000004 -8.728671 10.710558 0.000007 -0.000000 -0.000000 0.000000 -0.000680 9.278137 -0.000000 0.000000 -0.000001 
0.000006 104.270477 1.554256 0.000010 0.000003 -0.000113 -0.000005 10.181587 0.131522 0.000001 -0.000003 0.000084 -0.000000 9.893967 -1.470711 0.000001 0.000000 -0.000000 -0.000000 9.220802 -1.370642 0.000000 -0.000000 -0.000000 0.000001 16.740433 -2.049030 0.000000 -0.000000 -0.000000 0.000000 9.617859 1.685014 0.000000 0.000000 0.000000 0.000002 22.037384 7.501101 0.000000 -0.000000 0.000000 -4.569968 11.014880 -2.160881 0.000008 0.000001 -0.000038 -10.592876 -0.524737 -2.231934 78.183427 23.285653 -19.006685 -27.841522 0.000016 0.000523 -57.554056 109.244382 75.442376 -28.328831 0.000022 0.000026 -0.000324 -0.000047 0.000008 -2.464430 -1.573737 2.682314 -50.880514 -169.194960 -18.281877 -3.215286 -1.872623 1.924659 156.140979 30.408569 -4.178681 -2.654949 -1.527894 1.513087 145.430942 26.856635 -41.673108 -2.018831 -1.152013 1.108066 0.000001 -0.000001 0.000004 -9.108380 -0.517551 2.260130 100.179389 15.813141 -18.909604 -3.700072 0.000319 0.001511 97.810686 12.891047 -14.733773 -2.850070 0.000379 -0.000256 96.591552 9.714072 -10.893442 -2.772156 -0.000001 -0.000017 0.000001 -0.000000 -0.000000 -9.532593 0.000261 0.000248 94.123340 16.589872 -17.963112 -3.700060 0.000333 0.003976 93.611554 11.860560 -12.526279 -2.950043 0.000333 -0.001803 94.628665 10.752897 -11.645047 -2.946625 0.000000 -0.000161 -0.000003 0.000000 -0.000000 -9.103709 -0.042751 -1.864856 92.146588 18.239306 -18.876659 -3.379334 0.000324 -0.000804 93.658709 9.162986 -9.783139 -2.889760 0.000349 0.000662 99.413198 5.970088 -7.091841 -2.638818 -0.000015 0.000941 -0.000004 0.000000 0.000001 -8.076756 -0.486387 -3.805999 89.998807 18.355290 -18.202664 -3.600037 0.000265 -0.003491 93.180719 7.704505 -7.771660 -2.100011 0.000329 -0.005458 96.920944 3.764317 -4.007614 -2.115783 -0.000036 -0.003683 0.000003 -0.000002 -0.000000 4.570446 11.014691 -2.160851 -0.000018 0.000010 -0.000021 10.592381 -0.524491 -2.232334 73.331896 -5.324987 3.965565 27.841841 0.000075 -0.000193 106.398303 -69.372681 85.543611 28.328833 -0.000028 0.000022 0.000023 -0.000089 -0.000000 2.466079 -1.576157 2.681913 -25.274493 158.099618 -38.948484 3.217860 -1.871803 1.916398 162.453700 -25.031520 29.332186 2.656107 -1.528646 1.514478 146.338169 -25.837921 48.615582 2.020884 -1.154048 1.115148 0.000001 0.000004 0.000002 9.109372 -0.517849 2.259732 90.473608 -17.585338 17.716344 3.700045 0.000185 -0.000460 88.279915 -13.009046 12.643825 2.850043 0.000225 0.000208 85.978531 -10.076319 9.394783 2.774870 -0.000031 -0.000030 -0.000001 -0.000002 0.000001 9.533457 0.000237 -0.000074 90.774669 -16.537969 16.750899 3.700038 0.000197 -0.000377 92.354376 -11.117700 11.578332 2.950042 0.000203 -0.000208 91.837562 -10.338480 10.676522 2.952857 -0.000013 0.000061 0.000002 -0.000000 0.000000 9.104593 -0.042813 -1.865202 91.319636 -16.096218 16.468189 3.150057 0.000217 -0.000099 95.850708 -12.656095 14.008374 2.950011 0.000208 -0.000071 95.947308 -10.505523 11.651165 2.644324 0.000030 0.000054 -0.000001 0.000001 0.000000 8.077847 -0.486710 -3.806384 85.152658 -18.067558 17.169992 3.600029 0.000183 0.014564 83.463969 -16.149308 14.893760 2.100033 0.000190 0.007548 82.106489 -11.378727 10.335964 2.125494 -0.000018 0.007514 0.000000 -0.000000 -0.000002 -8.207786 -6.751667 -1.599560 -0.077001 -0.000003 0.000080 -0.000002 -44.370110 0.345938 0.153719 -0.000000 -0.000000 0.000000 -44.423679 -3.043532 -0.076700 0.000000 -0.000002 -0.000006 -8.728667 10.710559 -0.000009 -0.000000 -0.000000 -0.000001 -0.000679 9.278123 0.000000 -0.000000 -0.000000 8.207792 -6.751710 -1.599556 -0.074518 -0.000003 0.000081 -0.000002 -44.370014 0.346960 0.148822 0.000002 0.000000 -0.000001 -44.423664 -3.044403 -0.074314 0.000000 -0.000002 -0.000004 -8.728671 10.710558 0.000007 -0.000000 -0.000000 0.000000 -0.000680 9.278137 -0.000000 0.000000 -0.000001 
